<?xml version="1.0" encoding="utf-8"?>
<!-- Generator: Adobe Illustrator 16.0.0, SVG Export Plug-In . SVG Version: 6.00 Build 0)  -->
<!DOCTYPE svg PUBLIC "-//W3C//DTD SVG 1.1//EN" "http://www.w3.org/Graphics/SVG/1.1/DTD/svg11.dtd">
<svg version="1.1" id="Layer_1" xmlns="http://www.w3.org/2000/svg" xmlns:xlink="http://www.w3.org/1999/xlink" x="0px" y="0px"
	 width="859px" height="856px" viewBox="-403 -428 859 856" enable-background="new -403 -428 859 856" xml:space="preserve">
<path fill="#CCCCCC" d="M442-89c0-2-0.334-3.334-1-4c-24-100-74-180.666-150-242c-76-61.333-165-92.333-267-93
	c-54,0-106.666,10.333-158,31s-96.666,50-136,88l-72-72c-7.334-7.333-15.666-11-25-11s-17.667,3.667-25,11s-11,15.667-11,25v250
	c0,10,3.667,18.334,11,25s15.666,10.334,25,11h250c10,0,18.334-3.666,25-11s10.334-15.666,11-25s-3-17.666-11-25l-76-76
	c26.666-24.666,56.666-43.666,90-57s68-20,104-20c50,0,96.666,12,140,36s78,57.334,104,100c4,6,14,27.666,30,65
	c2.666,8.666,8.334,13,17,13h107c4.666,0,9-1.666,13-5s5.666-7.666,5-13V-89z M456,357V107c0-10-3.666-18.333-11-25
	s-15.666-10.334-25-11H170c-10,0-18.334,3.667-25,11s-10.334,15.667-11,25s3,17.667,11,25l77,77c-55.334,50.667-120.334,76-195,76
	c-50,0-96.666-12-140-36s-78-57.333-104-100c-4-6-14-27.667-30-65c-2.666-8.667-8.334-13-17-13h-111c-4.666,0-9,1.667-13,5
	s-5.667,7.667-5,13v4c24,100,74.334,180.667,151,242s166,92.333,268,93c54,0,106.666-10.333,158-31s97-49.667,137-87l73,72
	c7.334,7.333,15.666,11,25,11s17.666-3.667,25-11s11-15.667,11-25H456z"/>
</svg>
