<?xml version="1.0" encoding="utf-8"?>
<!-- Generator: Adobe Illustrator 16.0.0, SVG Export Plug-In . SVG Version: 6.00 Build 0)  -->
<!DOCTYPE svg PUBLIC "-//W3C//DTD SVG 1.1//EN" "http://www.w3.org/Graphics/SVG/1.1/DTD/svg11.dtd">
<svg version="1.1" id="Layer_1" xmlns="http://www.w3.org/2000/svg" xmlns:xlink="http://www.w3.org/1999/xlink" x="0px" y="0px"
	 width="1000.513px" height="928.091px" viewBox="0.244 -78.091 1000.513 928.091"
	 enable-background="new 0.244 -78.091 1000.513 928.091" xml:space="preserve">
<path fill="#666666" d="M430,688.909v-106c0-5.334,1.667-9.667,5-13c3.334-3.333,7.667-5,13-5h107c4.667,0,9,1.667,13,5
	s5.667,7.667,5,13v106c0,5.333-1.666,9.667-5,13c-3.333,3.333-7.666,5-13,5H448c-4.666,0-9-1.667-13-5
	C431,698.575,429.334,694.242,430,688.909z M431,479.909l-10-256c0-4.667,2-8.333,6-11c4.667-4,9-6,13-6h123c4,0,8.334,2,13,6
	c4,2.667,6,6.667,6,12l-9,255c0,4-2,7-6,9s-8.333,3.333-13,4H451c-5.333,0-9.666-1.333-13-4c-3.333-2.667-5.333-5.667-6-9H431z
	 M439-41.091l-429,786c-13.333,23.333-13,46.666,1,70c6,10.666,14.667,19.333,26,26c11.334,6.666,23,9.666,35,9h857.001
	c12.666,0,24.333-3,35-9c10.666-6,19.333-14.667,26-26c14-23.333,14.333-46.667,1-70L562-41.091c-6-11.333-14.666-20.333-26-27
	c-11.333-6.667-23.333-10-36-10c-12.666,0-24.666,3.333-36,10c-11.333,6.667-20,15.667-26,27H439z"/>
</svg>
